<svg version="1.1" id="Layer_1" xmlns="http://www.w3.org/2000/svg" xmlns:xlink="http://www.w3.org/1999/xlink" x="0px" y="0px"
	 width="100%" viewBox="0 0 170 146" enable-background="new 0 0 170 146" xml:space="preserve">
<path fill="#ECEDEC" opacity="1.000000" stroke="none" 
	d="
M103.000000,147.000000 
	C68.666679,147.000000 34.833355,147.000000 1.000023,147.000000 
	C1.000015,98.333359 1.000015,49.666718 1.000008,1.000055 
	C57.666626,1.000037 114.333252,1.000037 170.999908,1.000018 
	C170.999939,49.666611 170.999939,98.333221 170.999969,146.999908 
	C148.500000,147.000000 126.000000,147.000000 103.000000,147.000000 
M62.819679,87.878197 
	C74.146294,88.457924 84.097054,85.097687 92.536659,77.459084 
	C102.677223,68.280968 104.643997,54.277309 96.817291,45.435760 
	C91.645729,39.593632 84.533897,37.836395 77.101234,37.181686 
	C73.529709,36.867085 69.937004,36.792854 66.353882,36.609768 
	C65.903091,35.984173 65.452301,35.358574 65.001503,34.732979 
	C66.564072,33.828365 68.459740,33.217522 69.592102,31.933512 
	C70.648033,30.736176 70.892433,28.823156 71.494057,27.225170 
	C69.868202,26.637922 68.036659,25.252199 66.653854,25.608431 
	C61.908558,26.830889 57.032269,28.139160 52.786831,30.471930 
	C50.455395,31.752998 49.287983,35.152496 47.595730,37.596821 
	C50.319168,38.360531 53.045689,39.113724 55.760162,39.908070 
	C55.975693,39.971142 56.107780,40.319351 56.431732,40.728306 
	C52.273582,44.146049 48.117699,47.561928 44.522945,50.516594 
	C42.840271,47.761211 41.442974,43.530033 39.984291,43.508759 
	C37.343838,43.470257 34.039486,45.388268 32.164860,47.508476 
	C29.857586,50.118011 28.369045,53.651077 27.254316,57.025375 
	C26.749178,58.554443 27.436195,61.557751 28.591936,62.282608 
	C30.048414,63.196072 32.630909,62.827133 34.552727,62.332294 
	C36.259193,61.892906 37.726749,60.525665 39.380535,59.518803 
	C39.789665,64.073662 39.592358,68.179085 40.605698,71.960037 
	C43.481270,82.689224 52.051460,86.250969 62.819679,87.878197 
M91.523155,82.087898 
	C89.994865,85.179543 87.795776,88.122238 87.069710,91.392014 
	C85.223267,99.707298 88.972092,104.035782 97.519913,104.327553 
	C108.629044,104.706749 119.474808,97.136360 122.791794,86.687675 
	C124.949501,79.890793 121.757233,74.075676 114.727058,72.809029 
	C105.502121,71.146942 98.265106,75.218887 91.523155,82.087898 
M43.575802,102.637688 
	C47.911594,110.811646 62.660839,114.527138 72.815353,110.006149 
	C76.375206,108.421227 78.894867,106.098091 79.098976,101.862984 
	C79.312622,97.430061 76.973465,94.773682 73.319954,92.853828 
	C66.159325,89.091080 58.726288,88.895966 51.086834,91.021729 
	C45.133114,92.678421 43.151688,95.433235 43.575802,102.637688 
M115.567383,37.724354 
	C108.592133,38.497887 104.970390,42.098251 104.430374,48.795631 
	C103.646683,58.515308 113.832657,67.837036 123.570702,66.311958 
	C130.621170,65.207787 133.963028,60.849800 133.202499,53.751514 
	C132.358353,45.872803 125.208496,39.044624 115.567383,37.724354 
M130.895660,83.552437 
	C126.067085,91.220139 127.356812,96.782837 134.484146,99.029869 
	C141.762573,101.324547 151.903503,94.953583 153.030716,87.378128 
	C153.740219,82.609871 151.705963,79.339310 147.014664,78.003395 
	C140.734268,76.214958 135.712311,78.603912 130.895660,83.552437 
M65.873627,120.619690 
	C63.753292,124.914337 65.776375,127.546349 69.468292,129.454208 
	C76.473457,133.074234 82.947433,131.450073 88.872147,127.044899 
	C93.175667,123.845116 92.476341,118.641785 87.698593,116.223488 
	C80.674889,112.668396 72.110039,114.144554 65.873627,120.619690 
M37.541233,73.898903 
	C35.381042,70.654091 32.294453,69.029160 28.582104,70.198021 
	C24.672667,71.428932 23.284384,74.836189 22.929300,78.738625 
	C22.447977,84.028435 24.893757,88.077019 28.508457,91.458069 
	C33.326664,95.964844 39.689533,93.813164 41.737762,87.493164 
	C43.476822,82.127129 40.391197,78.480156 37.541233,73.898903 
M80.218452,32.184864 
	C87.996284,37.141384 96.154526,39.613152 104.999748,35.256313 
	C106.880898,34.329731 109.610962,32.238358 109.509644,30.863447 
	C109.363731,28.883303 107.380554,26.214779 105.486931,25.335020 
	C98.631241,22.149942 91.274330,21.720409 84.136879,24.263107 
	C81.252335,25.290718 77.581375,27.002283 80.218452,32.184864 
M130.048401,33.942444 
	C135.342941,30.804893 135.546295,27.347769 130.583740,24.015892 
	C129.360336,23.194492 128.042313,22.490978 126.705940,21.865372 
	C123.287056,20.264864 117.976654,21.691303 117.257446,24.696003 
	C116.323715,28.596922 118.713310,30.948603 122.113068,32.186562 
	C124.407310,33.021969 126.859329,33.424099 130.048401,33.942444 
M31.040892,102.395134 
	C30.380844,101.069672 30.046387,99.319839 28.990778,98.509941 
	C26.993332,96.977417 24.581774,95.984634 22.342279,94.767593 
	C21.320206,97.325623 19.989202,99.817146 19.417593,102.472160 
	C19.164434,103.648026 20.095078,105.584137 21.110233,106.418198 
	C22.988543,107.961411 25.324654,108.947418 27.470079,110.165520 
	C28.730606,107.810478 29.991131,105.455437 31.040892,102.395134 
M76.431442,15.517570 
	C74.779076,16.655624 73.126701,17.793680 71.238655,19.094057 
	C77.385994,23.151747 82.978073,22.150011 87.262306,15.668952 
	C83.427826,15.528951 80.327431,15.415751 76.431442,15.517570 
M14.751762,68.647064 
	C15.738818,69.058121 17.487755,69.973068 17.598988,69.804886 
	C19.350576,67.156441 21.049530,64.439415 22.342627,61.551033 
	C22.590683,60.996944 21.052649,59.643246 20.338610,58.658440 
	C18.413155,60.475800 16.290161,62.136147 14.659439,64.187767 
	C14.006884,65.008751 14.438799,66.691727 14.751762,68.647064 
M38.190788,32.589489 
	C33.943493,33.971111 33.901863,36.457813 36.329044,39.989536 
	C39.473206,36.738506 43.975880,35.129963 46.011410,29.643246 
	C44.040947,30.309341 43.282646,30.547989 42.537201,30.821651 
	C41.297901,31.276613 40.066853,31.754045 38.190788,32.589489 
z"/>
<path fill="#2E7D32" opacity="1.000000" stroke="none" 
	d="
M62.375618,87.853722 
	C52.051460,86.250969 43.481270,82.689224 40.605698,71.960037 
	C39.592358,68.179085 39.789665,64.073662 39.380535,59.518803 
	C37.726749,60.525665 36.259193,61.892906 34.552727,62.332294 
	C32.630909,62.827133 30.048414,63.196072 28.591936,62.282608 
	C27.436195,61.557751 26.749178,58.554443 27.254316,57.025375 
	C28.369045,53.651077 29.857586,50.118011 32.164860,47.508476 
	C34.039486,45.388268 37.343838,43.470257 39.984291,43.508759 
	C41.442974,43.530033 42.840271,47.761211 44.522945,50.516594 
	C48.117699,47.561928 52.273582,44.146049 56.431732,40.728306 
	C56.107780,40.319351 55.975693,39.971142 55.760162,39.908070 
	C53.045689,39.113724 50.319168,38.360531 47.595730,37.596821 
	C49.287983,35.152496 50.455395,31.752998 52.786831,30.471930 
	C57.032269,28.139160 61.908558,26.830889 66.653854,25.608431 
	C68.036659,25.252199 69.868202,26.637922 71.494057,27.225170 
	C70.892433,28.823156 70.648033,30.736176 69.592102,31.933512 
	C68.459740,33.217522 66.564072,33.828365 65.001503,34.732979 
	C65.452301,35.358574 65.903091,35.984173 66.353882,36.609768 
	C69.937004,36.792854 73.529709,36.867085 77.101234,37.181686 
	C84.533897,37.836395 91.645729,39.593632 96.817291,45.435760 
	C104.643997,54.277309 102.677223,68.280968 92.536659,77.459084 
	C84.097054,85.097687 74.146294,88.457924 62.375618,87.853722 
z"/>
<path fill="#388E3C" opacity="1.000000" stroke="none" 
	d="
M91.755348,81.808296 
	C98.265106,75.218887 105.502121,71.146942 114.727058,72.809029 
	C121.757233,74.075676 124.949501,79.890793 122.791794,86.687675 
	C119.474808,97.136360 108.629044,104.706749 97.519913,104.327553 
	C88.972092,104.035782 85.223267,99.707298 87.069710,91.392014 
	C87.795776,88.122238 89.994865,85.179543 91.755348,81.808296 
z"/>
<path fill="#43A047" opacity="1.000000" stroke="none" 
	d="
M43.436653,102.273064 
	C43.151688,95.433235 45.133114,92.678421 51.086834,91.021729 
	C58.726288,88.895966 66.159325,89.091080 73.319954,92.853828 
	C76.973465,94.773682 79.312622,97.430061 79.098976,101.862984 
	C78.894867,106.098091 76.375206,108.421227 72.815353,110.006149 
	C62.660839,114.527138 47.911594,110.811646 43.436653,102.273064 
z"/>
<path fill="#43A047" opacity="1.000000" stroke="none" 
	d="
M115.994324,37.724823 
	C125.208496,39.044624 132.358353,45.872803 133.202499,53.751514 
	C133.963028,60.849800 130.621170,65.207787 123.570702,66.311958 
	C113.832657,67.837036 103.646683,58.515308 104.430374,48.795631 
	C104.970390,42.098251 108.592133,38.497887 115.994324,37.724823 
z"/>
<path fill="#4CAF50" opacity="1.000000" stroke="none" 
	d="
M131.119965,83.257370 
	C135.712311,78.603912 140.734268,76.214958 147.014664,78.003395 
	C151.705963,79.339310 153.740219,82.609871 153.030716,87.378128 
	C151.903503,94.953583 141.762573,101.324547 134.484146,99.029869 
	C127.356812,96.782837 126.067085,91.220139 131.119965,83.257370 
z"/>
<path fill="#66BB6A" opacity="1.000000" stroke="none" 
	d="
M66.031975,120.275070 
	C72.110039,114.144554 80.674889,112.668396 87.698593,116.223488 
	C92.476341,118.641785 93.175667,123.845116 88.872147,127.044899 
	C82.947433,131.450073 76.473457,133.074234 69.468292,129.454208 
	C65.776375,127.546349 63.753292,124.914337 66.031975,120.275070 
z"/>
<path fill="#4CAF50" opacity="1.000000" stroke="none" 
	d="
M37.771763,74.188705 
	C40.391197,78.480156 43.476822,82.127129 41.737762,87.493164 
	C39.689533,93.813164 33.326664,95.964844 28.508457,91.458069 
	C24.893757,88.077019 22.447977,84.028435 22.929300,78.738625 
	C23.284384,74.836189 24.672667,71.428932 28.582104,70.198021 
	C32.294453,69.029160 35.381042,70.654091 37.771763,74.188705 
z"/>
<path fill="#4CAF50" opacity="1.000000" stroke="none" 
	d="
M79.989380,31.888264 
	C77.581375,27.002283 81.252335,25.290718 84.136879,24.263107 
	C91.274330,21.720409 98.631241,22.149942 105.486931,25.335020 
	C107.380554,26.214779 109.363731,28.883303 109.509644,30.863447 
	C109.610962,32.238358 106.880898,34.329731 104.999748,35.256313 
	C96.154526,39.613152 87.996284,37.141384 79.989380,31.888264 
z"/>
<path fill="#66BB6A" opacity="1.000000" stroke="none" 
	d="
M129.644592,33.981247 
	C126.859329,33.424099 124.407310,33.021969 122.113068,32.186562 
	C118.713310,30.948603 116.323715,28.596922 117.257446,24.696003 
	C117.976654,21.691303 123.287056,20.264864 126.705940,21.865372 
	C128.042313,22.490978 129.360336,23.194492 130.583740,24.015892 
	C135.546295,27.347769 135.342941,30.804893 129.644592,33.981247 
z"/>
<path fill="#81C784" opacity="1.000000" stroke="none" 
	d="
M31.146275,102.747757 
	C29.991131,105.455437 28.730606,107.810478 27.470078,110.165512 
	C25.324654,108.947418 22.988543,107.961411 21.110233,106.418198 
	C20.095078,105.584137 19.164434,103.648026 19.417593,102.472160 
	C19.989202,99.817146 21.320206,97.325623 22.342281,94.767593 
	C24.581774,95.984634 26.993332,96.977417 28.990778,98.509941 
	C30.046387,99.319839 30.380844,101.069672 31.146275,102.747757 
z"/>
<path fill="#A5D6A7" opacity="1.000000" stroke="none" 
	d="
M76.829239,15.410060 
	C80.327431,15.415751 83.427826,15.528951 87.262306,15.668952 
	C82.978073,22.150011 77.385994,23.151747 71.238655,19.094057 
	C73.126701,17.793680 74.779076,16.655624 76.829239,15.410060 
z"/>
<path fill="#81C784" opacity="1.000000" stroke="none" 
	d="
M14.564421,68.314697 
	C14.438799,66.691727 14.006884,65.008751 14.659439,64.187767 
	C16.290161,62.136147 18.413155,60.475800 20.338610,58.658440 
	C21.052649,59.643246 22.590683,60.996944 22.342627,61.551033 
	C21.049530,64.439415 19.350576,67.156441 17.598988,69.804886 
	C17.487755,69.973068 15.738818,69.058121 14.564421,68.314697 
z"/>
<path fill="#A5D6A7" opacity="1.000000" stroke="none" 
	d="
M38.511559,32.405750 
	C40.066853,31.754045 41.297901,31.276613 42.537201,30.821651 
	C43.282646,30.547989 44.040947,30.309341 46.011410,29.643246 
	C43.975880,35.129963 39.473206,36.738506 36.329044,39.989536 
	C33.901863,36.457813 33.943493,33.971111 38.511559,32.405750 
z"/>
</svg>